<svg width="64" height="64" xmlns="http://www.w3.org/2000/svg" viewBox="0 0 64 64">
  <!-- Background circle -->
  <circle cx="32" cy="32" r="32" fill="#25D366"/>
  
  <!-- WhatsApp icon -->
  <g transform="translate(12, 12)">
    <!-- Phone body -->
    <path d="M20 0C8.954 0 0 8.954 0 20c0 3.542.937 6.865 2.566 9.74L0 40l10.52-2.507A19.93 19.93 0 0 0 20 40c11.046 0 20-8.954 20-20S31.046 0 20 0z" fill="#ffffff"/>
    
    <!-- Phone screen -->
    <path d="M20 3.333c-9.205 0-16.667 7.462-16.667 16.667 0 3.063.834 5.938 2.284 8.405L3.333 35l6.84-2.38a16.605 16.605 0 0 0 9.827 3.047c9.205 0 16.667-7.462 16.667-16.667S29.205 3.333 20 3.333z" fill="#25D366"/>
    
    <!-- Message bubbles -->
    <path d="M15.833 12.5c-.333-.733-.683-.75-1-.758-.258-.008-.558-.008-.858-.008s-.783.108-1.192.542c-.408.433-1.558 1.525-1.558 3.716s1.592 4.309 1.817 4.609c.225.3 3.15 4.809 7.633 6.742 3.725 1.608 4.483 1.291 5.292 1.208.808-.083 2.608-1.066 2.975-2.1.367-1.033.367-1.916.258-2.1-.108-.183-.408-.291-.858-.508-.45-.217-2.658-1.317-3.067-1.467-.408-.15-.708-.225-1.008.225-.3.45-1.158 1.467-1.417 1.767-.258.3-.517.333-.967.116-.45-.217-1.9-.7-3.617-2.233-1.342-1.192-2.242-2.659-2.5-3.109-.258-.45-.025-.692.192-.917.2-.2.45-.517.675-.775.225-.258.3-.433.45-.733.15-.3.075-.558-.033-.775-.108-.217-.975-2.384-1.375-3.267z" fill="#ffffff"/>
  </g>
</svg>
